<svg width="204" height="49" viewBox="0 0 204 49" fill="none" xmlns="http://www.w3.org/2000/svg">
<path d="M10.7031 35.5634C8.60611 35.5634 6.80584 35.2665 5.30232 34.6728C3.83837 34.0791 2.71073 33.0302 1.91941 31.5262C1.12808 30.0221 0.732422 27.9046 0.732422 25.1735V23.0955C1.95898 23.0955 3.16575 23.0955 4.35273 23.0955C5.53972 23.0955 6.72671 23.0955 7.9137 23.0955V25.7672C7.9137 27.2317 8.0324 28.3597 8.26979 29.1513C8.50719 29.9034 8.8435 30.4377 9.27873 30.7544C9.71396 31.0314 10.2283 31.17 10.8218 31.17C11.7318 31.17 12.444 30.8533 12.9584 30.22C13.5123 29.5471 13.7893 28.2608 13.7893 26.3609C13.7893 24.8964 13.5519 23.808 13.0771 23.0955C12.6419 22.3435 11.9297 21.7498 10.9405 21.3144C9.95136 20.8394 8.68524 20.2655 7.14215 19.5926C5.75734 18.9989 4.60991 18.2865 3.69989 17.4553C2.78987 16.6241 2.11724 15.5752 1.68201 14.3086C1.24678 13.042 1.02917 11.4984 1.02917 9.6777C1.02917 7.38202 1.32592 5.52173 1.91941 4.09683C2.55247 2.67193 3.58119 1.64284 5.00558 1.00955C6.46953 0.336678 8.42806 0.000244141 10.8812 0.000244141C14.0465 0.000244141 16.46 0.692904 18.1218 2.07822C19.8231 3.42396 20.6738 5.46236 20.6738 8.19342V12.4088C19.5264 12.4088 18.379 12.4088 17.2316 12.4088C16.1237 12.4088 14.9763 12.4088 13.7893 12.4088V10.2714C13.7893 8.49028 13.5717 7.24349 13.1364 6.53104C12.7408 5.81859 12.0088 5.46236 10.9405 5.46236C9.91179 5.46236 9.17982 5.77901 8.74459 6.4123C8.30936 7.04559 8.09175 8.07468 8.09175 9.49958C8.09175 10.8057 8.34893 11.8348 8.86329 12.5869C9.41722 13.2993 10.1096 13.8534 10.9405 14.2493C11.7714 14.6055 12.6616 14.9617 13.6112 15.3179C15.3522 15.9908 16.7765 16.6835 17.8844 17.3959C18.9922 18.0688 19.8034 19.0187 20.3177 20.2457C20.8321 21.4331 21.0893 23.1549 21.0893 25.411C21.0893 27.9441 20.654 29.9627 19.7836 31.4668C18.9527 32.9313 17.7459 33.9802 16.1633 34.6135C14.6202 35.2467 12.8001 35.5634 10.7031 35.5634Z" fill="white"/>
<path d="M38.2578 0.000732422C42.4567 0.000848706 45.8601 3.40442 45.8604 7.60327V27.9607C45.8603 32.1596 42.4568 35.5631 38.2578 35.5632H31.8809C27.6818 35.5632 24.2774 32.1597 24.2773 27.9607V7.60327C24.2776 3.40435 27.6819 0.000732422 31.8809 0.000732422H38.2578ZM34.332 6.13062C32.7066 6.13062 31.3887 7.44852 31.3887 9.07397V26.488C31.3889 28.1133 32.7067 29.4304 34.332 29.4304H35.8037C37.4289 29.4302 38.7459 28.1132 38.7461 26.488V9.07397C38.7461 7.44864 37.429 6.1308 35.8037 6.13062H34.332Z" fill="white"/>
<path d="M63.0293 0.000732422C67.2281 0.00090125 70.6316 3.40446 70.6318 7.60327V13.1212C70.6318 13.6631 70.1926 14.1023 69.6508 14.1023H64.5025C63.9607 14.1023 63.5215 14.5415 63.5215 15.0833V20.4796C63.5215 21.0215 63.9607 21.4607 64.5025 21.4607H69.6508C70.1926 21.4607 70.6318 21.8999 70.6318 22.4417V27.9607C70.6317 32.1596 67.2282 35.5631 63.0293 35.5632H56.6523C52.4533 35.5632 49.0489 32.1597 49.0488 27.9607V7.60327C49.0491 3.40435 52.4534 0.000732422 56.6523 0.000732422H63.0293ZM59.1055 6.13062C57.48 6.13062 56.1621 7.44852 56.1621 9.07397V26.488C56.1623 28.1133 57.4801 29.4304 59.1055 29.4304H60.5762C62.2015 29.4304 63.5193 28.1133 63.5195 26.488V9.07397C63.5195 7.44852 62.2016 6.13062 60.5762 6.13062H59.1055Z" fill="white"/>
<path d="M95.4033 34.8128C95.4033 35.2274 95.0672 35.5635 94.6526 35.5635H74.571C74.1564 35.5635 73.8203 35.2274 73.8203 34.8128V0.750717C73.8203 0.336107 74.1564 0 74.571 0L94.6526 0C95.0672 0 95.4033 0.336108 95.4033 0.750718V34.8128ZM81.7048 20.79C81.2902 20.79 80.9541 21.1261 80.9541 21.5408V34.8118C80.9541 35.2264 81.2902 35.5625 81.7048 35.5625H87.7112C88.1258 35.5625 88.4619 35.2264 88.4619 34.8118V21.5408C88.4619 21.1261 88.1258 20.79 87.7112 20.79H81.7048ZM80.9541 14.0227C80.9541 14.4373 81.2902 14.7734 81.7048 14.7734H87.7112C88.1258 14.7734 88.4619 14.4373 88.4619 14.0227V0.751694C88.4619 0.337084 88.1258 0.000976562 87.7112 0.000976562H81.7048C81.2902 0.000976562 80.9541 0.337085 80.9541 0.751695V14.0227Z" fill="white"/>
<path d="M173.511 0.000976562C174.101 0.000976562 174.58 0.479839 174.58 1.07055V5.10426C174.58 5.69497 174.101 6.17383 173.511 6.17383H167.896C167.305 6.17383 166.826 6.65263 166.826 7.24329L166.823 34.3602C166.823 34.9509 166.344 35.4297 165.754 35.4297H160.139C159.548 35.4297 159.069 34.9508 159.069 34.3601V18.7261C159.069 18.2795 158.793 17.8822 158.363 17.7643C156.901 17.3639 153.418 16.6807 150.247 18.1182C149.167 18.7206 149.165 18.8904 148.788 19.2714C148.695 19.3655 148.612 19.4706 148.557 19.5909C147.638 21.5972 147.977 23.7202 148.615 25.7686C149.438 28.2427 151.952 32.6455 151.952 32.6455L152.602 33.8467C152.988 34.559 152.473 35.4247 151.663 35.4254L147.12 35.4294C146.894 35.4296 146.669 35.3619 146.507 35.2035C145.571 34.2881 144.726 32.2903 144.151 31.4769C144.116 31.4272 144.083 31.3744 144.055 31.3204C141.072 25.5654 139.704 24.5373 140.242 17.5375C140.249 17.4579 140.264 17.3764 140.288 17.3004C140.839 15.5823 141.612 14.2268 143.162 13.2861C145.568 11.676 147.039 11.371 148.376 11.1396C151.601 10.5816 154.918 10.6731 157.558 11.3859C158.293 11.5843 159.071 11.0581 159.071 10.2965V7.0718C159.071 6.47643 158.585 5.99569 157.99 6.00205C147.482 6.11443 146.81 6.047 136.063 6.16224C135.477 6.16852 135.004 6.64548 135.004 7.23153V34.3601C135.004 34.9508 134.525 35.4297 133.934 35.4297H128.052C127.461 35.4297 126.982 34.9508 126.982 34.3601V23.884C126.982 23.2933 126.504 22.8145 125.913 22.8145H118.714C118.115 22.8145 117.634 23.3064 117.631 23.9053C117.625 24.8824 117.593 25.6407 117.623 26.8408C117.637 28.2076 117.356 29.1226 116.823 29.6094C116.027 30.4067 115.427 30.5297 114.316 30.5312L113.68 30.5455C113.61 30.5471 113.54 30.5422 113.472 30.5285C111.893 30.2102 110.777 29.0032 109.671 27.8809L109.255 27.4609C107.8 25.9609 106.54 24.3317 105.325 22.6309L104.725 21.791C104.058 20.6962 103.863 20.4142 104.1 18.9163C104.113 18.832 104.136 18.7489 104.173 18.6717C104.567 17.8294 105.193 17.3357 106.051 17.1905C106.101 17.182 106.151 17.1787 106.202 17.1787H108.532C109.123 17.1787 109.602 16.6998 109.602 16.1091V7.2434C109.602 6.65269 109.123 6.17383 108.532 6.17383H102.114C101.524 6.17383 101.045 5.69497 101.045 5.10426V1.07055C101.045 0.479839 101.524 0.000976562 102.114 0.000976562H173.511ZM118.692 5.90527C118.101 5.90527 117.622 6.38414 117.622 6.97484V16.1091C117.622 16.6998 118.101 17.1787 118.692 17.1787H125.912C126.503 17.1787 126.981 16.6998 126.981 16.1091V6.97484C126.981 6.38414 126.503 5.90527 125.912 5.90527H118.692Z" fill="white"/>
<path d="M179.087 1.83291C179.108 0.814526 179.939 0 180.958 0L186.61 0C187.743 0 188.616 0.998989 188.464 2.12199L185.493 24.145C185.368 25.0736 184.575 25.7665 183.638 25.7665H180.501C179.452 25.7665 178.608 24.9046 178.629 23.8559L179.087 1.83291Z" fill="white"/>
<path d="M177.612 31.0243C177.734 29.495 179.01 28.3159 180.545 28.3159H181.986C183.831 28.3159 185.221 29.9954 184.875 31.808L184.615 33.1722C184.351 34.5593 183.138 35.5627 181.726 35.5627H180.436C178.72 35.5627 177.368 34.0994 177.504 32.3885L177.612 31.0243Z" fill="white"/>
<path d="M193.258 1.83291C193.28 0.814526 194.111 0 195.13 0L200.781 0C201.915 0 202.788 0.998989 202.636 2.12199L199.665 24.145C199.54 25.0736 198.747 25.7665 197.81 25.7665H194.673C193.624 25.7665 192.78 24.9046 192.801 23.8559L193.258 1.83291Z" fill="white"/>
<path d="M191.784 31.0243C191.906 29.495 193.182 28.3159 194.716 28.3159H196.158C198.003 28.3159 199.393 29.9954 199.047 31.808L198.787 33.1722C198.523 34.5593 197.31 35.5627 195.898 35.5627H194.608C192.892 35.5627 191.54 34.0994 191.676 32.3885L191.784 31.0243Z" fill="white"/>
<rect y="41.5391" width="57.3834" height="5.92728" rx="0.930407" fill="white"/>
<path d="M65.6528 40.8386H68.7586C69.4907 40.8386 70.0536 40.8937 70.4473 41.004C70.8488 41.1063 71.1322 41.2756 71.2975 41.5118C71.4628 41.7401 71.5455 42.0628 71.5455 42.4801V43.4248C71.5455 43.6374 71.4589 43.8381 71.2857 44.0271C71.1204 44.216 70.9236 44.3459 70.6952 44.4168V44.4758C70.9944 44.5073 71.266 44.6372 71.5101 44.8655C71.762 45.0859 71.888 45.3339 71.888 45.6095V46.7904C71.888 47.4123 71.64 47.8532 71.144 48.113C70.648 48.3728 69.8804 48.5027 68.8412 48.5027H65.6528V40.8386ZM68.7586 43.9562C69.0499 43.9562 69.2664 43.9326 69.4081 43.8854C69.5498 43.8381 69.6442 43.7633 69.6915 43.661C69.7466 43.5508 69.7741 43.3933 69.7741 43.1886V42.8107C69.7741 42.6297 69.7505 42.4958 69.7033 42.4092C69.6561 42.3148 69.5576 42.2478 69.4081 42.2085C69.2664 42.1691 69.0381 42.1494 68.7231 42.1494H67.495V43.9562H68.7586ZM68.8058 47.1919C69.2546 47.1919 69.5734 47.1407 69.7623 47.0384C69.9513 46.936 70.0458 46.7707 70.0458 46.5424V45.9283C70.0458 45.6449 69.971 45.4442 69.8214 45.3261C69.6797 45.208 69.4238 45.1489 69.0538 45.1489H67.495V47.1919H68.8058ZM76.1364 45.4323L73.3613 40.8386H75.4515L77.0693 43.8381L78.6754 40.8386H80.7774L77.9786 45.4087V48.5027H76.1364V45.4323ZM86.3043 40.8386H92.2678V42.1494H88.1465V44.0271H91.8781V45.3379H88.1465V48.5027H86.3043V40.8386ZM94.4566 40.8386H96.2988V48.5027H94.4566V40.8386ZM100.667 42.1494H98.3052V40.8386H104.859V42.1494H102.509V48.5027H100.667V42.1494ZM106.863 40.8386H112.827V42.1494H108.706V44.0271H112.437V45.3379H108.706V48.5027H106.863V40.8386ZM118.311 48.6208C116.098 48.6208 114.992 47.8807 114.992 46.4007V40.8386H116.834V46.4007C116.834 46.7471 116.945 46.9872 117.165 47.121C117.393 47.247 117.783 47.31 118.334 47.31C118.877 47.31 119.255 47.247 119.468 47.121C119.688 46.9872 119.798 46.7471 119.798 46.4007V40.8386H121.641V46.4007C121.641 47.8807 120.531 48.6208 118.311 48.6208ZM124.218 40.8386H130.063V42.1494H126.06V43.909H129.673V45.2198H126.06V47.1919H130.181V48.5027H124.218V40.8386ZM132.37 40.8386H134.212V47.1919H137.979V48.5027H132.37V40.8386Z" fill="white"/>
<rect x="146.27" y="41.5391" width="57.3834" height="5.92728" rx="0.930407" fill="white"/>
</svg>
