<svg width="284" height="61" viewBox="0 0 284 61" fill="none" xmlns="http://www.w3.org/2000/svg">
<rect width="284" height="60.5822" rx="30.2911" fill="#1C1C1C"/>
<path d="M79.7573 37.2316C78.325 37.2316 77.0953 37.0289 76.0683 36.6233C75.0683 36.2178 74.2981 35.5014 73.7576 34.474C73.217 33.4466 72.9468 32.0002 72.9468 30.1347V28.7154C73.7846 28.7154 74.6089 28.7154 75.4197 28.7154C76.2304 28.7154 77.0412 28.7154 77.852 28.7154V30.5403C77.852 31.5406 77.9331 32.3111 78.0952 32.8518C78.2574 33.3655 78.4871 33.7305 78.7844 33.9468C79.0817 34.136 79.433 34.2307 79.8384 34.2307C80.46 34.2307 80.9465 34.0144 81.2978 33.5818C81.6762 33.1222 81.8654 32.2435 81.8654 30.9458C81.8654 29.9455 81.7032 29.202 81.3789 28.7154C81.0816 28.2017 80.5951 27.7962 79.9195 27.4988C79.2438 27.1743 78.379 26.7823 77.325 26.3227C76.3791 25.9172 75.5953 25.4305 74.9737 24.8628C74.3521 24.295 73.8927 23.5786 73.5954 22.7134C73.2981 21.8483 73.1495 20.7939 73.1495 19.5502C73.1495 17.9822 73.3522 16.7115 73.7576 15.7382C74.19 14.7649 74.8926 14.062 75.8656 13.6294C76.8655 13.1698 78.2033 12.94 79.8789 12.94C82.041 12.94 83.6896 13.4131 84.8247 14.3594C85.9868 15.2786 86.5679 16.6709 86.5679 18.5364V21.4157C85.7841 21.4157 85.0004 21.4157 84.2166 21.4157C83.4599 21.4157 82.6761 21.4157 81.8654 21.4157V19.9558C81.8654 18.7392 81.7167 17.8875 81.4194 17.4009C81.1492 16.9142 80.6492 16.6709 79.9195 16.6709C79.2168 16.6709 78.7168 16.8872 78.4195 17.3198C78.1223 17.7524 77.9736 18.4553 77.9736 19.4286C77.9736 20.3208 78.1493 21.0237 78.5006 21.5374C78.879 22.024 79.3519 22.4025 79.9195 22.6729C80.487 22.9162 81.0951 23.1595 81.7437 23.4028C82.9329 23.8624 83.9058 24.3356 84.6625 24.8222C85.4193 25.2818 85.9733 25.9307 86.3246 26.7688C86.676 27.5799 86.8517 28.7559 86.8517 30.297C86.8517 32.0273 86.5544 33.4061 85.9598 34.4334C85.3923 35.4338 84.568 36.1502 83.4869 36.5828C82.4329 37.0154 81.1897 37.2316 79.7573 37.2316Z" fill="white"/>
<path d="M98.5781 12.9398C101.446 12.9398 103.772 15.2649 103.772 18.1331V32.0384C103.772 34.9065 101.446 37.2318 98.5781 37.2318H94.2227C91.3546 37.2316 89.0295 34.9064 89.0293 32.0384V18.1331C89.0293 15.265 91.3545 12.9399 94.2227 12.9398H98.5781ZM95.8984 17.1282C94.7882 17.1283 93.8887 18.0287 93.8887 19.139V31.0335C93.8889 32.1436 94.7883 33.0432 95.8984 33.0433H96.9033C98.0135 33.0433 98.9138 32.1436 98.9141 31.0335V19.139C98.9141 18.0287 98.0136 17.1282 96.9033 17.1282H95.8984Z" fill="white"/>
<path d="M115.5 12.9398C118.368 12.9398 120.693 15.2649 120.693 18.1331V21.9025C120.693 22.2726 120.393 22.5726 120.023 22.5726H116.507C116.136 22.5726 115.836 22.8726 115.836 23.2427V26.9288C115.836 27.2989 116.136 27.5989 116.507 27.5989H120.023C120.393 27.5989 120.693 27.899 120.693 28.2691V32.0384C120.693 34.9064 118.368 37.2318 115.5 37.2318H111.144C108.276 37.2317 105.951 34.9064 105.951 32.0384V18.1331C105.951 15.2649 108.276 12.9398 111.144 12.9398H115.5ZM112.82 17.1282C111.71 17.1282 110.809 18.0287 110.809 19.139V31.0335C110.809 32.1436 111.71 33.0433 112.82 33.0433H113.825C114.935 33.0433 115.835 32.1436 115.835 31.0335V19.139C115.835 18.0287 114.935 17.1282 113.825 17.1282H112.82Z" fill="white"/>
<path d="M127.743 22.5179C127.743 22.8011 127.972 23.0306 128.255 23.0306H132.358C132.641 23.0306 132.871 22.8011 132.871 22.5179V13.4526C132.871 13.1694 133.1 12.9398 133.383 12.9398H137.1C137.383 12.9398 137.613 13.1694 137.613 13.4526V36.719C137.613 37.0022 137.383 37.2318 137.1 37.2318H123.383C123.1 37.2318 122.871 37.0022 122.871 36.719V13.4526C122.871 13.1694 123.1 12.9398 123.383 12.9398H127.23C127.513 12.9398 127.743 13.1694 127.743 13.4526V22.5179ZM128.255 27.14C127.972 27.14 127.743 27.3696 127.743 27.6528V36.7181C127.743 37.0013 127.972 37.2308 128.255 37.2308H132.358C132.641 37.2308 132.871 37.0013 132.871 36.7181V27.6528C132.871 27.3696 132.641 27.14 132.358 27.14H128.255Z" fill="white"/>
<path d="M190.964 12.9403C191.368 12.9403 191.695 13.2674 191.695 13.6709V16.4265C191.695 16.83 191.368 17.1571 190.964 17.1571H187.129C186.726 17.1571 186.399 17.4841 186.399 17.8876L186.397 36.41C186.397 36.8134 186.07 37.1405 185.666 37.1405H181.831C181.427 37.1405 181.1 36.8134 181.1 36.4099V25.7308C181.1 25.4257 180.912 25.1544 180.617 25.0738C179.619 24.8003 177.24 24.3334 175.074 25.3153C174.336 25.7267 174.334 25.843 174.077 26.1033C174.013 26.1676 173.957 26.2394 173.919 26.3216C173.291 27.6921 173.524 29.1427 173.959 30.5418C174.52 32.2271 176.229 35.2211 176.239 35.2381L176.683 36.0593C176.946 36.5459 176.594 37.1371 176.041 37.1376L172.938 37.1403C172.783 37.1404 172.63 37.0942 172.519 36.986C171.88 36.3608 171.303 34.9964 170.91 34.4407C170.886 34.4068 170.863 34.3708 170.844 34.3339C168.807 30.4027 167.873 29.7001 168.24 24.9184C168.244 24.8641 168.255 24.8084 168.271 24.7565C168.648 23.5832 169.176 22.658 170.234 22.0155C171.878 20.9156 172.882 20.7067 173.795 20.5487C175.998 20.1675 178.264 20.2301 180.067 20.7169C180.57 20.8524 181.101 20.493 181.101 19.9728V17.7699C181.101 17.3632 180.769 17.0348 180.362 17.0392C173.185 17.116 172.726 17.0704 165.385 17.1492C164.985 17.1535 164.662 17.4792 164.662 17.8795V36.4099C164.662 36.8134 164.335 37.1405 163.931 37.1405H159.913C159.509 37.1405 159.182 36.8134 159.182 36.4099V29.2539C159.182 28.8504 158.855 28.5233 158.452 28.5233H153.535C153.126 28.5233 152.797 28.8593 152.795 29.2684C152.791 29.9357 152.769 30.4537 152.79 31.2733C152.799 32.2067 152.607 32.8314 152.244 33.1639C151.7 33.7086 151.29 33.7937 150.532 33.7948L150.096 33.804C150.049 33.805 150.001 33.8017 149.955 33.7924C148.876 33.5751 148.113 32.7509 147.358 31.9842L147.074 31.6971C146.08 30.6725 145.22 29.5591 144.39 28.3973L143.98 27.8241C143.525 27.0762 143.391 26.8835 143.553 25.8602C143.562 25.8027 143.578 25.7459 143.603 25.6931C143.872 25.1181 144.299 24.781 144.884 24.6817C144.919 24.6759 144.953 24.6737 144.988 24.6737H146.58C146.984 24.6737 147.311 24.3466 147.311 23.9431V17.8877C147.311 17.4842 146.984 17.1571 146.58 17.1571H142.197C141.793 17.1571 141.466 16.83 141.466 16.4265V13.6709C141.466 13.2674 141.793 12.9403 142.197 12.9403H190.964ZM153.519 16.9745C153.116 16.9745 152.789 17.3015 152.789 17.705V23.9441C152.789 24.3476 153.116 24.6747 153.519 24.6747H158.451C158.854 24.6747 159.181 24.3476 159.181 23.9441V17.705C159.181 17.3015 158.854 16.9745 158.451 16.9745H153.519Z" fill="#F28A1D"/>
<path d="M194.776 14.1923C194.791 13.4967 195.359 12.9403 196.055 12.9403H199.915C200.689 12.9403 201.285 13.6227 201.182 14.3898L199.153 29.4327C199.067 30.067 198.526 30.5403 197.886 30.5403H195.742C195.026 30.5403 194.449 29.9516 194.464 29.2353L194.776 14.1923Z" fill="white"/>
<path d="M193.769 34.1309C193.852 33.0863 194.724 32.2809 195.771 32.2809H196.756C198.017 32.2809 198.966 33.4281 198.73 34.6662L198.552 35.598C198.371 36.5455 197.543 37.2309 196.579 37.2309H195.697C194.525 37.2309 193.602 36.2313 193.695 35.0627L193.769 34.1309Z" fill="white"/>
<path d="M204.454 14.1923C204.468 13.4967 205.036 12.9403 205.732 12.9403H209.592C210.366 12.9403 210.963 13.6227 210.859 14.3898L208.83 29.4327C208.744 30.067 208.203 30.5403 207.563 30.5403H205.42C204.703 30.5403 204.126 29.9516 204.141 29.2353L204.454 14.1923Z" fill="white"/>
<path d="M203.446 34.1309C203.529 33.0863 204.401 32.2809 205.449 32.2809H206.434C207.694 32.2809 208.643 33.4281 208.407 34.6662L208.23 35.598C208.049 36.5455 207.221 37.2309 206.256 37.2309H205.375C204.203 37.2309 203.28 36.2313 203.372 35.0627L203.446 34.1309Z" fill="white"/>
<rect x="72.9468" y="42.4371" width="22.0058" height="5.20536" rx="0.630952" fill="#F28A1D"/>
<path d="M100.561 42.3424H101.81V44.4246H104.02V42.3424H105.269V47.5398H104.02V45.3135H101.81V47.5398H100.561V42.3424ZM107.028 42.3424H110.992V43.2313H108.277V44.4246H110.727V45.3135H108.277V46.6509H111.072V47.5398H107.028V42.3424ZM113.933 42.3424H115.455L117.329 47.5398H116.064L115.599 46.1704H113.701L113.245 47.5398H112.011L113.933 42.3424ZM115.327 45.3375L114.67 43.3835H114.638L113.982 45.3375H115.327ZM118.546 42.3424H119.795V46.6509H122.35V47.5398H118.546V42.3424ZM125.033 43.2313H123.432V42.3424H127.876V43.2313H126.283V47.5398H125.033V43.2313ZM129.235 42.3424H130.485V44.4246H132.695V42.3424H133.944V47.5398H132.695V45.3135H130.485V47.5398H129.235V42.3424ZM137.088 45.4576L135.206 42.3424H136.623L137.72 44.3765L138.81 42.3424H140.235L138.337 45.4416V47.5398H137.088V45.4576ZM143.983 42.3424H145.761L147.042 46.0583L148.308 42.3424H149.981V47.5398H148.852V43.6958H148.828L147.515 47.5398H146.514L145.16 43.6958H145.128V47.5398H143.983V42.3424ZM153.118 42.3424H154.639L156.513 47.5398H155.248L154.784 46.1704H152.886L152.429 47.5398H151.196L153.118 42.3424ZM154.511 45.3375L153.855 43.3835H153.823L153.166 45.3375H154.511ZM157.73 42.3424H158.996L161.51 45.8901V42.3424H162.623V47.5398H161.358L158.843 43.9361V47.5398H157.73V42.3424ZM166.86 47.6199C166.561 47.6199 166.296 47.6065 166.067 47.5798C165.837 47.5531 165.61 47.5077 165.386 47.4437C165.146 47.3796 164.948 47.2942 164.793 47.1874C164.639 47.0753 164.513 46.9312 164.417 46.755C164.321 46.5681 164.273 46.3546 164.273 46.1143V43.9521C164.273 43.6905 164.326 43.4556 164.433 43.2474C164.54 43.0338 164.684 42.8656 164.865 42.7428C165.036 42.6307 165.239 42.5346 165.474 42.4545C165.714 42.3745 165.949 42.3211 166.179 42.2944C166.371 42.273 166.603 42.2623 166.876 42.2623C167.612 42.2623 168.317 42.3184 168.99 42.4305V43.3755C168.37 43.226 167.666 43.1513 166.876 43.1513C165.973 43.1513 165.522 43.4129 165.522 43.9361V46.0262C165.522 46.2825 165.642 46.464 165.883 46.5708C166.128 46.6776 166.497 46.7309 166.988 46.7309C167.249 46.7309 167.53 46.6909 167.829 46.6108V45.4016H166.98V44.5847H169.022V47.2835C168.755 47.3796 168.413 47.4597 167.997 47.5238C167.586 47.5878 167.207 47.6199 166.86 47.6199ZM170.176 42.3424H171.473L172.482 46.1383L173.491 42.3424H174.652L175.741 46.1383L176.67 42.3424H177.936L176.27 47.5398H175.037L174.044 43.7679L173.019 47.5398H171.785L170.176 42.3424ZM180.581 42.3424H182.103L183.977 47.5398H182.711L182.247 46.1704H180.349L179.892 47.5398H178.659L180.581 42.3424ZM181.975 45.3375L181.318 43.3835H181.286L180.629 45.3375H181.975Z" fill="white"/>
<rect x="189.048" y="42.4371" width="22.0058" height="5.20536" rx="0.630952" fill="#F28A1D"/>
</svg>
