<svg width="278" height="60" viewBox="0 0 278 60" fill="none" xmlns="http://www.w3.org/2000/svg">
<rect width="278" height="60" rx="30" fill="#02583F"/>
<path d="M78.1379 37.7176C76.7393 37.7176 75.5387 37.5197 74.536 37.1237C73.5597 36.7278 72.8076 36.0282 72.2799 35.0252C71.7522 34.0221 71.4883 32.6099 71.4883 30.7885V29.4026C72.3063 29.4026 73.1111 29.4026 73.9027 29.4026C74.6943 29.4026 75.4859 29.4026 76.2776 29.4026V31.1844C76.2776 32.1611 76.3567 32.9134 76.515 33.4414C76.6734 33.9429 76.8977 34.2992 77.1879 34.5104C77.4782 34.6952 77.8212 34.7876 78.217 34.7876C78.8239 34.7876 79.2989 34.5764 79.6419 34.1541C80.0114 33.7053 80.1961 32.8474 80.1961 31.5804C80.1961 30.6037 80.0377 29.8778 79.7211 29.4026C79.4308 28.9011 78.9559 28.5052 78.2962 28.2148C77.6365 27.898 76.7921 27.5153 75.763 27.0665C74.8395 26.6706 74.0742 26.1954 73.4673 25.6411C72.8604 25.0868 72.4118 24.3873 72.1216 23.5426C71.8313 22.6979 71.6862 21.6684 71.6862 20.4541C71.6862 18.9231 71.8841 17.6825 72.2799 16.7322C72.7021 15.7819 73.3882 15.0956 74.3381 14.6732C75.3144 14.2245 76.6206 14.0001 78.2566 14.0001C80.3676 14.0001 81.9772 14.4621 83.0855 15.386C84.2201 16.2834 84.7874 17.6429 84.7874 19.4643V22.2755C84.0222 22.2755 83.257 22.2755 82.4918 22.2755C81.7529 22.2755 80.9877 22.2755 80.1961 22.2755V20.8501C80.1961 19.6622 80.0509 18.8307 79.7607 18.3556C79.4968 17.8804 79.0086 17.6429 78.2962 17.6429C77.6101 17.6429 77.122 17.8541 76.8317 18.2764C76.5414 18.6987 76.3963 19.3851 76.3963 20.3353C76.3963 21.2064 76.5678 21.8928 76.9109 22.3943C77.2803 22.8694 77.7421 23.239 78.2962 23.503C78.8503 23.7405 79.444 23.9781 80.0773 24.2157C81.2384 24.6644 82.1883 25.1264 82.9271 25.6015C83.666 26.0503 84.2069 26.6838 84.55 27.5021C84.893 28.294 85.0645 29.4422 85.0645 30.9469C85.0645 32.6362 84.7743 33.9825 84.1937 34.9856C83.6396 35.9622 82.8348 36.6618 81.7793 37.0841C80.7502 37.5065 79.5364 37.7176 78.1379 37.7176Z" fill="white"/>
<path d="M96.5156 14C99.3158 14.0003 101.586 16.271 101.586 19.0713V32.6475C101.586 35.4477 99.3158 37.7175 96.5156 37.7178H92.2627C89.4623 37.7178 87.1915 35.4478 87.1914 32.6475V19.0713C87.1914 16.2709 89.4623 14 92.2627 14H96.5156ZM93.8965 18.0889C92.8126 18.0891 91.9337 18.9679 91.9336 20.0518V31.665C91.9336 32.749 92.8126 33.6277 93.8965 33.6279H94.8779C95.962 33.6279 96.8408 32.7491 96.8408 31.665V20.0518C96.8407 18.9678 95.9619 18.0889 94.8779 18.0889H93.8965Z" fill="white"/>
<path d="M113.034 14.0001C115.834 14.0003 118.104 16.2711 118.104 19.0714V22.7511C118.104 23.1125 117.812 23.4054 117.45 23.4054H114.017C113.655 23.4054 113.362 23.6983 113.362 24.0597V27.6583C113.362 28.0197 113.655 28.3126 114.017 28.3126H117.45C117.812 28.3126 118.104 28.6056 118.104 28.9669V32.6476C118.104 35.4479 115.834 37.7178 113.034 37.7179H108.781C105.981 37.7179 103.711 35.4479 103.711 32.6476V19.0714C103.711 16.271 105.981 14.0001 108.781 14.0001H113.034ZM110.417 18.089C109.333 18.089 108.454 18.9679 108.454 20.0519V31.6652C108.454 32.7492 109.333 33.6281 110.417 33.6281H111.398C112.482 33.628 113.361 32.7492 113.361 31.6652V20.0519C113.361 18.9679 112.482 18.089 111.398 18.089H110.417Z" fill="white"/>
<path d="M124.99 23.3515C124.99 23.628 125.214 23.8522 125.491 23.8522H129.496C129.773 23.8522 129.997 23.628 129.997 23.3515V14.5013C129.997 14.2248 130.221 14.0006 130.498 14.0006H134.126C134.403 14.0006 134.627 14.2248 134.627 14.5013V37.2167C134.627 37.4933 134.403 37.7174 134.126 37.7174H130.498C130.221 37.7174 129.997 37.4933 129.997 37.2167V28.3655C129.997 28.089 129.773 27.8649 129.496 27.8649H125.491C125.214 27.8649 124.99 28.089 124.99 28.3655V37.2167C124.99 37.4933 124.766 37.7174 124.49 37.7174H120.733C120.457 37.7174 120.232 37.4933 120.232 37.2167V14.5013C120.232 14.2248 120.457 14.0006 120.733 14.0006H124.49C124.766 14.0006 124.99 14.2248 124.99 14.5013V23.3515Z" fill="white"/>
<path d="M186.716 14.0001C187.11 14.0001 187.43 14.3195 187.43 14.7134V17.404C187.43 17.798 187.11 18.1173 186.716 18.1173H182.972C182.578 18.1173 182.259 18.4366 182.259 18.8305L182.257 36.9158C182.257 37.3097 181.938 37.629 181.544 37.629H177.798C177.404 37.629 177.085 37.3097 177.085 36.9157V26.4895C177.085 26.1912 176.9 25.9256 176.613 25.8469C175.637 25.5798 173.316 25.125 171.202 26.0831C170.481 26.485 170.48 26.5979 170.228 26.8519C170.166 26.9147 170.111 26.9848 170.074 27.065C169.461 28.4032 169.688 29.8195 170.113 31.1857C170.662 32.8357 172.339 35.7716 172.339 35.7716L172.772 36.5723C173.03 37.0473 172.686 37.6247 172.146 37.6252L169.117 37.6278C168.965 37.628 168.816 37.5828 168.707 37.4771C168.083 36.8666 167.519 35.535 167.136 34.9926C167.113 34.9594 167.091 34.9242 167.072 34.8882C165.083 31.05 164.17 30.3643 164.529 25.696C164.533 25.643 164.543 25.5886 164.559 25.5379C164.927 24.3922 165.443 23.4888 166.477 22.8615C168.082 21.7875 169.062 21.5831 169.954 21.4288C172.105 21.0567 174.317 21.118 176.078 21.5935C176.568 21.7258 177.087 21.3749 177.087 20.867V18.7156C177.087 18.3185 176.763 17.9979 176.366 18.0021C169.358 18.0771 168.91 18.0327 161.742 18.1096C161.352 18.1138 161.036 18.4319 161.036 18.8227V36.9157C161.036 37.3097 160.717 37.629 160.323 37.629H156.399C156.005 37.629 155.686 37.3097 155.686 36.9157V29.9293C155.686 29.5353 155.366 29.2159 154.972 29.2159H150.172C149.772 29.2159 149.452 29.544 149.449 29.9434C149.446 30.5948 149.424 31.1003 149.444 31.9005C149.453 32.8118 149.266 33.4215 148.911 33.7462C148.38 34.2781 147.98 34.3614 147.239 34.3624L146.814 34.3708C146.768 34.3717 146.722 34.3685 146.677 34.3594C145.624 34.1476 144.878 33.3435 144.141 32.5948L143.863 32.3146C142.893 31.3142 142.053 30.2271 141.243 29.0929L140.843 28.5323C140.398 27.8022 140.268 27.6143 140.426 26.6153C140.435 26.5591 140.45 26.5036 140.474 26.4521C140.737 25.8905 141.154 25.5609 141.726 25.464C141.759 25.4584 141.793 25.4562 141.827 25.4562H143.381C143.775 25.4562 144.095 25.1368 144.095 24.7429V18.8306C144.095 18.4367 143.775 18.1173 143.381 18.1173H139.102C138.708 18.1173 138.389 17.798 138.389 17.404V14.7134C138.389 14.3195 138.708 14.0001 139.102 14.0001H186.716ZM150.158 17.9386C149.764 17.9386 149.444 18.258 149.444 18.6519V24.7438C149.444 25.1378 149.764 25.4572 150.158 25.4572H154.972C155.366 25.4572 155.686 25.1378 155.686 24.7438V18.6519C155.686 18.258 155.366 17.9386 154.972 17.9386H150.158Z" fill="white"/>
<path d="M190.437 15.2228C190.451 14.5436 191.005 14.0004 191.685 14.0004H195.454C196.21 14.0004 196.792 14.6666 196.691 15.4155L194.71 30.103C194.626 30.7223 194.097 31.1844 193.472 31.1844H191.38C190.68 31.1844 190.117 30.6096 190.132 29.9102L190.437 15.2228Z" fill="white"/>
<path d="M189.453 34.691C189.534 33.6711 190.386 32.8848 191.409 32.8848H192.37C193.601 32.8848 194.528 34.0048 194.297 35.2137L194.124 36.1235C193.947 37.0486 193.138 37.7178 192.197 37.7178H191.336C190.192 37.7178 189.29 36.7418 189.381 35.6008L189.453 34.691Z" fill="white"/>
<path d="M199.888 15.2228C199.902 14.5436 200.457 14.0004 201.136 14.0004H204.905C205.661 14.0004 206.243 14.6666 206.142 15.4155L204.161 30.103C204.077 30.7223 203.549 31.1844 202.924 31.1844H200.831C200.132 31.1844 199.569 30.6096 199.583 29.9102L199.888 15.2228Z" fill="white"/>
<path d="M198.904 34.691C198.985 33.6711 199.837 32.8848 200.86 32.8848H201.821C203.052 32.8848 203.979 34.0048 203.748 35.2137L203.575 36.1235C203.398 37.0486 202.59 37.7178 201.648 37.7178H200.788C199.643 37.7178 198.742 36.7418 198.832 35.6008L198.904 34.691Z" fill="white"/>
<rect x="71" y="41.5354" width="37.9454" height="3.95298" rx="0.6205" fill="white"/>
<path d="M114.461 40.9006H116.533C117.021 40.9006 117.396 40.9373 117.659 41.0109C117.927 41.0791 118.116 41.192 118.226 41.3495C118.336 41.5018 118.391 41.717 118.391 41.9953V42.6253C118.391 42.7671 118.334 42.901 118.218 43.027C118.108 43.153 117.977 43.2396 117.824 43.2869V43.3263C118.024 43.3473 118.205 43.4339 118.368 43.5862C118.536 43.7332 118.62 43.8986 118.62 44.0823V44.8699C118.62 45.2847 118.454 45.5787 118.124 45.7519C117.793 45.9252 117.281 46.0118 116.588 46.0118H114.461V40.9006ZM116.533 42.9797C116.727 42.9797 116.871 42.964 116.966 42.9325C117.06 42.901 117.123 42.8511 117.155 42.7829C117.192 42.7093 117.21 42.6043 117.21 42.4678V42.2158C117.21 42.0951 117.194 42.0058 117.163 41.948C117.131 41.885 117.066 41.8404 116.966 41.8142C116.871 41.7879 116.719 41.7748 116.509 41.7748H115.69V42.9797H116.533ZM116.564 45.1377C116.863 45.1377 117.076 45.1035 117.202 45.0353C117.328 44.967 117.391 44.8568 117.391 44.7045V44.295C117.391 44.106 117.341 43.9721 117.242 43.8933C117.147 43.8146 116.976 43.7752 116.73 43.7752H115.69V45.1377H116.564ZM121.453 43.9642L119.602 40.9006H120.996L122.075 42.901L123.146 40.9006H124.548L122.682 43.9484V46.0118H121.453V43.9642ZM128.234 40.9006H132.211V41.7748H129.463V43.027H131.951V43.9012H129.463V46.0118H128.234V40.9006ZM133.671 40.9006H134.9V46.0118H133.671V40.9006ZM137.813 41.7748H136.238V40.9006H140.609V41.7748H139.041V46.0118H137.813V41.7748ZM141.945 40.9006H145.923V41.7748H143.174V43.027H145.663V43.9012H143.174V46.0118H141.945V40.9006ZM149.58 46.0906C148.104 46.0906 147.367 45.5971 147.367 44.61V40.9006H148.595V44.61C148.595 44.841 148.669 45.0011 148.816 45.0904C148.968 45.1744 149.228 45.2164 149.595 45.2164C149.958 45.2164 150.21 45.1744 150.351 45.0904C150.498 45.0011 150.572 44.841 150.572 44.61V40.9006H151.8V44.61C151.8 45.5971 151.06 46.0906 149.58 46.0906ZM153.519 40.9006H157.417V41.7748H154.748V42.9482H157.158V43.8224H154.748V45.1377H157.496V46.0118H153.519V40.9006ZM158.956 40.9006H160.185V45.1377H162.697V46.0118H158.956V40.9006Z" fill="white"/>
<rect x="168.873" y="41.5354" width="37.9454" height="3.95298" rx="0.6205" fill="white"/>
</svg>
